<svg width="48" height="48" viewBox="0 0 48 48" fill="none" xmlns="http://www.w3.org/2000/svg">
<path d="M15.6868 30.0762H9.54678C8.72178 30.0762 8.05078 30.7467 8.05078 31.5717V35.1637C8.05078 35.9887 8.72178 36.6592 9.54678 36.6592H15.6868C16.5118 36.6592 17.1828 35.9887 17.1828 35.1637V31.5717C17.1828 30.7467 16.5118 30.0762 15.6868 30.0762ZM15.6633 35.1397L9.57028 35.1637L9.54728 31.5957L15.6638 31.5722L15.6633 35.1397Z" fill="#FFD700"/>
<path d="M27.0385 42.2284H19.795C20.0365 41.8004 20.1855 41.3129 20.1855 40.7874V28.8104C20.1855 27.6894 19.5515 26.7239 18.6305 26.2214C18.683 26.0599 18.719 25.8909 18.719 25.7119V22.6194C18.719 21.7054 17.9755 20.9619 17.061 20.9619H12.6075V15.4829C12.6075 13.7404 14.029 12.3234 15.777 12.3234H30.856C32.6035 12.3234 34.0255 13.7404 34.0255 15.4829V24.7594C34.0255 25.1789 34.3655 25.5189 34.785 25.5189C35.2045 25.5189 35.5445 25.1789 35.5445 24.7594V15.4829C35.5445 13.5154 34.318 11.8354 32.591 11.1449C32.797 10.7944 32.924 10.3914 32.924 9.95593V6.61643C32.924 5.31293 31.864 4.25293 30.5605 4.25293H16.071C14.768 4.25293 13.708 5.31293 13.708 6.61643V9.95593C13.708 10.3914 13.8345 10.7949 14.041 11.1454C12.315 11.8364 11.089 13.5159 11.089 15.4829V20.9619H7.1245C6.2105 20.9619 5.467 21.7054 5.467 22.6194V25.7119C5.467 25.8909 5.5025 26.0599 5.5555 26.2214C4.634 26.7234 4 27.6894 4 28.8104V40.7874C4 42.4194 5.3275 43.7474 6.9595 43.7474H27.039C27.4585 43.7474 27.7985 43.4074 27.7985 42.9879C27.798 42.5684 27.458 42.2284 27.0385 42.2284ZM15.227 6.61593C15.227 6.14993 15.606 5.77143 16.071 5.77143H30.5605C31.0265 5.77143 31.405 6.15043 31.405 6.61593V9.95543C31.405 10.4214 31.026 10.7999 30.5605 10.7999H16.071C15.6055 10.7999 15.227 10.4209 15.227 9.95543V6.61593ZM6.9855 22.6194C6.9855 22.5434 7.048 22.4809 7.124 22.4809H17.061C17.1375 22.4809 17.2 22.5434 17.2 22.6194V25.7119C17.2 25.7879 17.1375 25.8504 17.061 25.8504H7.124C7.048 25.8504 6.9855 25.7879 6.9855 25.7119V22.6194ZM6.9595 42.2284C6.1655 42.2284 5.519 41.5814 5.519 40.7874V28.8104C5.519 28.0164 6.1655 27.3694 6.9595 27.3694H17.226C18.0205 27.3694 18.667 28.0164 18.667 28.8104V40.7874C18.667 41.5814 18.0205 42.2284 17.226 42.2284H6.9595Z" fill="#FFD700"/>
<path d="M29.1018 30.9426C28.1098 28.5511 26.0133 26.7601 23.4933 26.1511C22.8703 26.0036 22.1843 26.2866 21.8518 26.8326C20.5028 29.0461 20.2893 31.7951 21.2813 34.1866C22.2738 36.5791 24.3703 38.3701 26.8898 38.9771C27.0038 39.0036 27.1213 39.0176 27.2388 39.0176C27.4313 39.0176 27.6153 38.9696 27.7903 38.9006C27.7998 38.8976 28.3683 38.5631 28.5313 38.2961C29.8808 36.0821 30.0938 33.3341 29.1018 30.9426ZM22.6848 33.6046C21.8778 31.6591 22.0518 29.4231 23.1378 27.6281C25.1868 28.1226 26.8923 29.5791 27.6993 31.5236C28.3758 33.1546 28.3538 34.9871 27.6858 36.5951L25.4253 31.1461C25.2648 30.7576 24.8203 30.5746 24.4328 30.7356C24.0453 30.8956 23.8613 31.3401 24.0223 31.7276L26.2828 37.1766C24.6713 36.5126 23.3608 35.2346 22.6848 33.6046Z" fill="#FFD700"/>
<path d="M42.3902 26.1549C41.8387 26.0689 41.2772 26.0254 40.7187 26.0254C37.8462 26.0254 35.1452 27.1439 33.1152 29.1754C30.6937 31.5964 29.5647 35.0634 30.0957 38.4499C30.1137 38.5659 30.1632 38.6704 30.2037 38.7789C29.6422 39.4189 29.3302 40.2209 29.3442 41.0769C29.3597 42.0154 29.7477 42.8879 30.4367 43.5334C30.5832 43.6699 30.7697 43.7379 30.9552 43.7379C31.1577 43.7379 31.3607 43.6569 31.5102 43.4974C31.7972 43.1909 31.7812 42.7104 31.4747 42.4234C31.0892 42.0624 30.8712 41.5749 30.8632 41.0519C30.8557 40.6039 31.0122 40.1824 31.2917 39.8364C31.3857 39.8684 31.4747 39.9139 31.5747 39.9294C32.1262 40.0154 32.6892 40.0589 33.2477 40.0589C36.1192 40.0589 38.8192 38.9414 40.8502 36.9099C43.2712 34.4879 44.4002 31.0209 43.8697 27.6344C43.7517 26.8819 43.1437 26.2724 42.3902 26.1549ZM39.7762 35.8359C37.8797 37.7314 35.2472 38.6879 32.5957 38.5034L38.6932 32.4049C38.9897 32.1084 38.9897 31.6274 38.6932 31.3309C38.3967 31.0344 37.9157 31.0344 37.6192 31.3309L31.5212 37.4294C31.3372 34.7779 32.2972 32.1414 34.1892 30.2494C35.9332 28.5049 38.2517 27.5444 40.7187 27.5444C41.1982 27.5444 41.6812 27.5819 42.1552 27.6564C42.2582 27.6724 42.3522 27.7664 42.3677 27.8699C42.8242 30.7784 41.8547 33.7559 39.7762 35.8359Z" fill="#FFD700"/>
</svg>
