<svg width="298" height="71" viewBox="0 0 298 71" fill="none" xmlns="http://www.w3.org/2000/svg">
<path d="M69.6082 22.8643C69.6082 28.4104 64.1263 32.9064 57.3607 32.9064C50.5951 32.9064 45.1133 28.4104 45.1133 22.8643C45.1133 17.3183 50.5951 12.8223 57.3607 12.8223C64.1263 12.8223 69.6082 17.3183 69.6082 22.8643ZM54.095 13.516C51.7835 13.8122 50.4911 15.7846 49.9619 17.4646C48.8864 20.8657 49.962 24.563 52.0437 27.5591C57.0441 34.7663 65.9218 33.4952 65.1411 24.608C64.7725 20.4007 60.3835 12.7098 54.095 13.5197V13.516Z" fill="#872572"/>
<path d="M224.792 12.7598H208.906L209.596 17.7171C209.964 17.7471 209.817 17.7171 209.869 17.5483C210.212 16.3971 209.969 15.6846 210.975 14.6197C211.621 13.9372 213.282 13.0972 214.34 13.0972H221.21C221.21 13.0972 221.418 13.2547 221.418 13.266" fill="#872572"/>
<path d="M245.79 12.5586C249.203 12.5586 252.309 13.3086 255.141 14.7823L253.666 18.7796H253.471C252.656 15.5922 249.98 12.8586 245.868 12.8586C239.818 12.8586 237.802 17.5759 237.802 22.2669C237.802 27.228 239.936 32.6053 246.376 32.6053C250.565 32.3653 253.319 30.3516 254.911 27.3742L255.297 27.4942C253.475 30.8916 250.214 32.9652 245.521 32.9652C238.153 32.9652 232.914 28.5479 232.914 22.8069C232.914 17.0659 237.997 12.5586 245.795 12.5586H245.79Z" fill="#872572"/>
<path d="M217.391 12.7577V13.1514L217.421 13.0951V31.5969V31.5781C217.421 31.5969 217.421 31.6081 217.421 31.6119C217.356 31.8519 217.226 32.1144 217.053 32.2756C216.84 32.4781 216.459 32.4781 216.363 32.6993H223.511V32.5868C223.02 32.6281 222.413 31.9344 222.413 31.6269V13.2601C222.413 13.2601 222.604 13.0914 222.621 13.0914H226.221C227.279 13.0914 228.936 13.9314 229.587 14.6138C230.593 15.6788 230.35 16.3913 230.692 17.5425C230.744 17.7112 230.597 17.7412 230.966 17.7112L231.655 12.7539H217.404L217.391 12.7577Z" fill="#872572"/>
<path d="M282.737 32.4382C282.512 32.2245 282.36 31.8458 282.325 31.5645V14.7015V13.9778C282.325 13.6703 282.937 12.9766 283.427 13.0178V12.9053H276.262C276.358 13.1266 276.739 13.1266 276.956 13.329C277.182 13.5428 277.334 13.9215 277.368 14.2028V21.8562C273.656 20.5625 269.93 20.2962 266.778 20.4462V14.679V13.9553C266.778 13.6478 267.389 12.9541 267.879 12.9953V12.8828H260.715C260.81 13.1041 261.192 13.104 261.408 13.3065C261.634 13.5203 261.786 13.899 261.82 14.1803C261.803 14.4427 261.79 14.709 261.777 14.9752V20.2738C261.786 20.555 261.794 20.84 261.803 21.1212C259.947 21.5037 258.633 21.8899 258.633 21.8899C259.674 21.8562 260.845 21.8449 261.807 21.8599V26.866H261.82V31.7558C261.82 32.0633 261.209 32.757 260.719 32.7157V32.8282H267.883C267.788 32.607 267.406 32.607 267.19 32.4045C266.964 32.1908 266.812 31.812 266.778 31.5308V22.2424C272.684 23.0374 275.859 24.8598 277.368 26.0635V31.7783C277.368 32.0858 276.761 32.7795 276.267 32.7382V32.8507H283.431C283.336 32.6295 282.954 32.6295 282.737 32.427V32.4382Z" fill="#872572"/>
<path d="M43.337 32.8428C40.7696 32.5503 39.668 31.0916 38.2759 29.5429C36.2982 27.353 34.828 24.0382 31.4539 23.1457L33.7525 22.737C43.0985 19.9321 41.6456 8.75003 31.3672 8.11631C27.4249 7.87257 23.2485 8.15381 19.3192 8.10881C18.6427 8.10131 18.0008 8.09382 17.411 8.16131C15.8367 8.17631 14.5703 9.19252 14.5703 10.4412C14.5703 11.6899 15.8584 12.7211 17.4457 12.7211C17.6582 12.7211 17.862 12.7024 18.0615 12.6686C18.9072 12.5561 19.6618 12.1361 20.0218 11.4537C20.2126 11.1499 20.3211 10.8049 20.3211 10.4412C20.3211 10.4412 20.3904 9.38001 19.5664 8.53254H24.4888C24.272 9.02377 23.7515 9.4925 23.3656 9.90874C23.2094 10.0775 22.9969 10.295 22.7541 10.5387L18.9593 14.9298L18.8855 31.6653C18.7598 32.5465 18.2567 32.4528 17.5715 32.8128C17.4934 32.854 17.3416 32.8803 17.2852 32.9403H26.5445C26.5315 32.8428 26.4404 32.8765 26.306 32.8128C25.9937 32.6703 24.9962 32.4828 24.9962 32.0778V23.1494C27.7589 23.2957 29.5153 25.6506 30.6863 27.4618C31.0939 28.0955 32.6249 31.1141 32.6205 31.6616C32.6119 32.3403 31.6664 32.5428 31.159 32.809C31.0376 32.8728 30.9335 32.839 30.9205 32.9365H43.3153C43.3674 32.9065 43.3804 32.8765 43.337 32.8428ZM24.9962 22.5907V8.39005C31.0462 8.66379 36.025 13.6136 33.1236 18.4621C31.5276 21.1283 28.5742 22.437 24.9962 22.587V22.5907Z" fill="#872572"/>
<path d="M107.447 32.6696H114.741L113.64 31.9346C110.821 26.9511 108.982 21.4238 106.536 16.2715L104.923 12.8066H100.152L101.952 17.0515L101.921 16.7965L98.9333 22.7212C96.7215 22.7325 94.5054 23.0625 92.3065 23.5799C92.0897 23.6324 91.5563 23.6924 91.4825 23.8612C93.7854 23.8049 96.045 23.8312 98.2134 24.1499L95.4508 29.6284C94.6181 30.5359 93.8115 31.4621 92.5364 32.0058L90.793 32.6621H97.8101L96.5003 32.0996C95.6416 31.4284 95.7024 30.5772 95.8108 29.7109L98.6601 24.2174C100.607 24.5399 102.477 25.1136 104.242 26.0923C105.421 26.7448 106.206 27.476 106.961 28.4885C107.208 28.8222 108.396 31.6384 108.409 31.8296C108.418 31.9833 108.383 32.0396 108.284 32.1596C108.063 32.4333 107.611 32.4258 107.447 32.6621V32.6696ZM99.4364 22.7325L102.143 17.5127L104.693 23.5312C102.954 23.0062 101.197 22.7662 99.4364 22.7325Z" fill="#872572"/>
<path d="M135.304 31.0318C134.658 31.7143 132.993 32.558 131.935 32.558H125.052C125.052 32.558 124.844 32.4005 124.844 32.3893V13.9963C124.844 13.6888 125.451 12.9951 125.945 13.0363V12.9238H118.789C118.885 13.1451 119.267 13.1451 119.479 13.3476C119.705 13.5575 119.852 13.94 119.891 14.2213C119.531 19.8235 120.368 25.8233 119.895 31.3768C119.869 31.6693 119.874 31.9505 119.67 32.2093L118.785 32.8955H137.364L136.402 28.0994C136.059 29.2506 136.302 29.9669 135.296 31.0318H135.304Z" fill="#872572"/>
<path d="M87.2313 12.9235V13.1335C87.2313 13.1335 87.2313 13.1335 87.2313 13.1373C87.2356 13.1373 87.331 13.1298 87.4698 13.1223C87.9512 13.1223 88.9964 13.2385 88.9964 14.2135C89.0051 14.4497 88.94 14.7084 88.8403 14.9784C88.8403 14.9859 88.8403 14.9897 88.8403 14.9897C88.7405 15.2484 88.6147 15.5109 88.4846 15.7621L83.4018 22.3919L78.384 15.1809L77.5209 13.9397C77.4776 13.891 77.4515 13.846 77.4385 13.8047C77.4038 13.7372 77.3735 13.651 77.3648 13.561C77.2954 13.126 78.1498 13.0398 78.1498 13.0398V13.006V12.9235H70.9375V13.1148C70.9375 13.1148 72.0044 13.1448 72.4294 13.576L73.2751 14.6784C74.4851 16.1034 76.2242 18.792 76.9832 20.0257C77.7768 21.3119 78.7049 22.9169 78.8437 24.368C78.9998 25.9917 79.0649 29.2016 78.9001 31.0765C78.835 32.5239 78.2192 32.8352 77.8505 32.8877H85.1018C85.1018 32.8877 83.9612 32.7939 83.8051 31.699C83.8051 31.699 83.8051 31.699 83.8051 31.6952V31.6877C83.7878 31.564 83.7791 31.429 83.7921 31.2752C83.7921 31.2752 83.7921 31.2753 83.7921 31.2715C83.7834 30.9228 83.7791 30.574 83.7791 30.2215L83.649 22.9019L88.9183 16.0321C89.5212 15.4434 90.0633 14.7797 90.7311 14.2622L90.7398 14.2547C90.8309 14.1835 90.9263 14.116 91.0261 14.0485C92.2708 13.2797 93.8364 13.2385 93.9361 13.2385H93.9448V12.916H87.2399L87.2313 12.9235Z" fill="#872572"/>
<path d="M165.406 8.24348C165.406 8.24348 165.398 8.24348 165.389 8.23973C164.925 8.14224 162.371 8.04099 162.371 8.04099H151.429C151.429 8.04099 149.676 7.96599 148.688 8.23223C148.688 8.23223 148.683 8.23223 148.679 8.23223C147.495 8.52847 146.641 9.40218 146.641 10.4371C146.641 11.7158 147.946 12.7508 149.555 12.7508C149.768 12.7508 149.98 12.732 150.18 12.6983C151.038 12.5821 151.802 12.1583 152.166 11.4646C152.326 11.2096 152.422 10.9284 152.456 10.6284C152.456 10.6209 152.456 10.6171 152.461 10.6096C152.73 9.42093 151.784 8.40473 151.784 8.40473H156.685L154.616 10.7934L151.09 14.8695L151.017 31.245C151.025 31.3125 151.025 31.3838 151.017 31.4663C150.891 32.7 149.685 32.6287 149.685 32.6287V32.9662H163.685C173.035 32.9662 178.4 28.4289 178.4 20.5167C178.4 13.5008 173.712 9.13969 165.411 8.24348H165.406ZM170.684 28.9764C169.149 30.6675 166.885 31.5 164.652 31.8825C164.643 31.8825 164.639 31.8825 164.634 31.8862C164.513 31.9087 164.387 31.9275 164.266 31.95H164.27C164.27 31.95 164.11 31.9875 163.836 32.0362C160.835 32.5275 158.255 32.2837 157.405 32.1787C157.288 32.0962 157.214 32.0025 157.214 31.89V8.46472C157.214 8.46472 159.231 8.46472 161.742 8.82846C161.785 8.83596 161.828 8.8397 161.872 8.8472C161.902 8.85095 161.933 8.85471 161.963 8.86221C164.079 9.19219 166.525 9.78467 168.46 10.8421C168.468 10.8459 168.477 10.8534 168.49 10.8571C169.396 11.3558 170.19 11.9596 170.78 12.6833C170.793 12.702 170.806 12.717 170.819 12.732C172.528 14.6107 173.438 17.2506 173.438 20.558C173.438 24.2253 172.48 27.0789 170.689 28.9764H170.684Z" fill="#872572"/>
<path d="M184.238 12.8296L184.382 12.8371C184.334 12.8296 184.286 12.8258 184.238 12.8296Z" fill="#872572"/>
<path d="M202.186 12.7165H198.66V12.9265C198.66 12.9265 201.895 13.1402 201.93 14.3214V15.3789C201.93 15.4801 201.93 15.5664 201.93 15.6376V25.2185C201.93 26.2572 201.813 27.2021 201.583 28.0533C201.353 28.9046 200.989 29.632 200.49 30.2283C199.991 30.8245 199.328 31.2857 198.495 31.6082C197.662 31.9307 196.66 32.0919 195.485 32.0919C194.41 32.0919 193.529 31.9344 192.84 31.6232C192.15 31.3082 191.604 30.877 191.209 30.3295C190.81 29.782 190.545 29.1296 190.402 28.3758C190.264 27.6221 190.19 26.7934 190.19 25.8934V13.8339C190.198 13.7439 190.216 13.6652 190.242 13.5864C190.29 13.4852 190.337 13.3952 190.389 13.3202C190.693 12.934 191.235 12.8252 191.235 12.8252V12.7127H187.796H184.227V12.8252C184.274 12.8215 184.322 12.8252 184.374 12.8327L184.231 12.8252C184.231 12.8252 185.081 12.9152 185.298 13.7814C185.298 13.7814 185.298 13.7852 185.298 13.7889C185.298 13.7964 185.298 13.8077 185.302 13.8152C185.315 13.8602 185.324 13.9164 185.328 13.9727C185.328 13.9839 185.328 13.9952 185.332 14.0064C185.341 14.0852 185.341 14.1564 185.345 14.2127V27.7121C185.345 28.0458 185.372 28.3196 185.424 28.5333C185.575 29.4333 185.992 30.1608 186.673 30.7082C187.349 31.2557 188.143 31.6832 189.049 31.9869C189.956 32.2907 190.914 32.4894 191.929 32.5907C192.939 32.6882 193.868 32.7369 194.709 32.7369C197.393 32.7369 199.41 32.1932 200.75 31.1057C202.095 30.0183 202.763 28.1996 202.763 25.6535V15.6301C202.763 15.3301 202.771 14.8876 202.784 14.5464C202.784 14.5164 202.784 14.4827 202.789 14.4489C202.789 14.4452 202.789 14.4414 202.789 14.4339C202.789 14.3214 202.819 14.2164 202.867 14.1189C203.4 13.159 205.564 12.9302 205.564 12.9302V12.709H202.168L202.186 12.7165Z" fill="#872572"/>
<path d="M149.864 56.632L152.856 48.52H155.88V48.824H154.648V58.68H155.88V59H151.624V58.68H152.856V49.48L149.304 59.192H149.016L145.304 49.56V57.352C145.304 57.7467 145.352 58.0507 145.448 58.264C145.555 58.4773 145.912 58.616 146.52 58.68V59H143.672V58.68C144.045 58.7013 144.317 58.632 144.488 58.472C144.669 58.312 144.797 58.136 144.872 57.944C144.915 57.8267 144.941 57.7147 144.952 57.608C144.963 57.5013 144.968 57.4107 144.968 57.336V49.736C144.968 49.4373 144.904 49.224 144.776 49.096C144.648 48.968 144.509 48.888 144.36 48.856C144.296 48.8453 144.232 48.84 144.168 48.84C144.104 48.8293 144.045 48.824 143.992 48.824H143.704L143.72 48.52H146.744L149.864 56.632ZM158.451 58.68V48.824H157.219V48.52H165.107L165.283 51.544H164.899C164.782 50.6907 164.515 50.024 164.099 49.544C163.694 49.064 163.08 48.824 162.259 48.824H160.243V53.24H160.819C160.915 53.24 161.011 53.24 161.107 53.24C161.214 53.2293 161.326 53.208 161.443 53.176C161.688 53.1013 161.918 52.936 162.131 52.68C162.344 52.4133 162.483 51.96 162.547 51.32H162.867V55.512H162.547C162.547 55.4907 162.542 55.4693 162.531 55.448C162.531 55.416 162.526 55.3893 162.515 55.368C162.398 54.6853 162.238 54.216 162.035 53.96C161.843 53.6933 161.47 53.56 160.915 53.56H160.243V58.68H162.531C162.638 58.68 162.744 58.6747 162.851 58.664C162.968 58.6533 163.086 58.6373 163.203 58.616C163.63 58.5307 164.035 58.2907 164.419 57.896C164.814 57.4907 165.102 56.7707 165.283 55.736H165.667L165.331 59H157.219V58.68H158.451ZM166.828 48.52H171.5C173.196 48.52 174.466 48.952 175.308 49.816C176.162 50.6693 176.69 51.6133 176.892 52.648C176.924 52.8293 176.946 53.0107 176.956 53.192C176.978 53.3733 176.988 53.5493 176.988 53.72C176.988 55.0747 176.535 56.296 175.628 57.384C174.722 58.4613 173.49 59 171.932 59H166.828V58.68H168.06V48.824H166.828V48.52ZM169.852 58.68H172.012C173.1 58.68 173.852 58.2267 174.268 57.32C174.695 56.4133 174.924 55.416 174.956 54.328C174.967 54.2533 174.972 54.1787 174.972 54.104C174.972 54.0187 174.972 53.9387 174.972 53.864C174.972 51.7947 174.674 50.44 174.076 49.8C173.479 49.1493 172.642 48.824 171.564 48.824H169.852V58.68ZM179.56 58.68V48.824H178.328V48.52H182.584V48.824H181.352V58.68H182.584V59H178.328V58.68H179.56ZM191.858 55.512H192.242L192.114 59H191.698C191.698 58.968 191.693 58.9253 191.682 58.872C191.671 58.8187 191.655 58.7653 191.634 58.712C191.602 58.616 191.549 58.536 191.474 58.472C191.41 58.3973 191.314 58.36 191.186 58.36C191.079 58.36 190.967 58.3867 190.85 58.44C190.743 58.4827 190.631 58.5413 190.514 58.616C190.461 58.648 190.397 58.6853 190.322 58.728C190.247 58.7707 190.157 58.8133 190.05 58.856C189.869 58.9307 189.645 59 189.378 59.064C189.122 59.128 188.823 59.16 188.482 59.16C187.309 59.16 186.306 58.7227 185.474 57.848C184.653 56.9733 184.194 55.8373 184.098 54.44C184.098 54.3547 184.093 54.2693 184.082 54.184C184.082 54.0987 184.082 54.0133 184.082 53.928C184.082 53.8427 184.082 53.7573 184.082 53.672C184.093 53.5867 184.098 53.5013 184.098 53.416C184.194 51.9973 184.669 50.7973 185.522 49.816C186.375 48.8347 187.469 48.344 188.802 48.344C189.069 48.344 189.309 48.3707 189.522 48.424C189.735 48.4773 189.927 48.5307 190.098 48.584C190.269 48.648 190.423 48.7067 190.562 48.76C190.701 48.8133 190.823 48.84 190.93 48.84C190.973 48.84 191.021 48.84 191.074 48.84C191.127 48.8293 191.186 48.808 191.25 48.776C191.314 48.744 191.373 48.696 191.426 48.632C191.479 48.568 191.527 48.472 191.57 48.344H191.954L191.986 51.752H191.634C191.527 50.824 191.277 50.0773 190.882 49.512C190.498 48.936 189.837 48.648 188.898 48.648C188.749 48.648 188.583 48.664 188.402 48.696C188.231 48.728 188.05 48.7867 187.858 48.872C187.421 49.064 187.021 49.4533 186.658 50.04C186.295 50.616 186.114 51.512 186.114 52.728V55.32C186.114 56.3013 186.274 57.0427 186.594 57.544C186.925 58.0453 187.287 58.392 187.682 58.584C187.906 58.7013 188.119 58.7813 188.322 58.824C188.535 58.856 188.717 58.872 188.866 58.872C188.962 58.872 189.058 58.8667 189.154 58.856C189.261 58.8453 189.367 58.8293 189.474 58.808C189.965 58.68 190.434 58.3707 190.882 57.88C191.33 57.3893 191.655 56.6 191.858 55.512ZM199.584 58.68L198.4 55.448H195.264L194.688 56.872C194.666 56.9147 194.645 56.9627 194.624 57.016C194.602 57.0693 194.581 57.1227 194.56 57.176C194.517 57.272 194.474 57.384 194.432 57.512C194.4 57.64 194.384 57.7787 194.384 57.928C194.384 58.1413 194.442 58.3173 194.56 58.456C194.677 58.584 194.96 58.6587 195.408 58.68V59H192.688V58.68C192.976 58.6587 193.221 58.5573 193.424 58.376C193.637 58.1947 193.797 57.9973 193.904 57.784C193.925 57.752 193.941 57.72 193.952 57.688C193.973 57.656 193.989 57.624 194 57.592L197.536 48.52H197.824L201.472 58.68H202.56V59H198.16V58.68H199.584ZM198.288 55.128L196.911 51.16L195.344 55.128H198.288ZM204.467 58.68V48.824H203.235V48.52H207.491V48.824H206.259V58.68H208.115C208.2 58.68 208.285 58.6747 208.371 58.664C208.456 58.6533 208.547 58.6373 208.643 58.616C209.197 58.4773 209.72 58.1413 210.211 57.608C210.712 57.0747 211.069 56.4293 211.283 55.672H211.587L211.091 59H203.235V58.68H204.467ZM228.452 55.512H228.836L228.708 59H228.292C228.292 58.968 228.286 58.9253 228.276 58.872C228.265 58.8187 228.249 58.7653 228.228 58.712C228.196 58.616 228.142 58.536 228.068 58.472C228.004 58.3973 227.908 58.36 227.78 58.36C227.673 58.36 227.561 58.3867 227.444 58.44C227.337 58.4827 227.225 58.5413 227.108 58.616C227.054 58.648 226.99 58.6853 226.916 58.728C226.841 58.7707 226.75 58.8133 226.644 58.856C226.462 58.9307 226.238 59 225.972 59.064C225.716 59.128 225.417 59.16 225.076 59.16C223.902 59.16 222.9 58.7227 222.068 57.848C221.246 56.9733 220.788 55.8373 220.692 54.44C220.692 54.3547 220.686 54.2693 220.676 54.184C220.676 54.0987 220.676 54.0133 220.676 53.928C220.676 53.8427 220.676 53.7573 220.676 53.672C220.686 53.5867 220.692 53.5013 220.692 53.416C220.788 51.9973 221.262 50.7973 222.116 49.816C222.969 48.8347 224.062 48.344 225.396 48.344C225.662 48.344 225.902 48.3707 226.116 48.424C226.329 48.4773 226.521 48.5307 226.692 48.584C226.862 48.648 227.017 48.7067 227.156 48.76C227.294 48.8133 227.417 48.84 227.524 48.84C227.566 48.84 227.614 48.84 227.668 48.84C227.721 48.8293 227.78 48.808 227.844 48.776C227.908 48.744 227.966 48.696 228.02 48.632C228.073 48.568 228.121 48.472 228.164 48.344H228.548L228.58 51.752H228.228C228.121 50.824 227.87 50.0773 227.476 49.512C227.092 48.936 226.43 48.648 225.492 48.648C225.342 48.648 225.177 48.664 224.996 48.696C224.825 48.728 224.644 48.7867 224.452 48.872C224.014 49.064 223.614 49.4533 223.252 50.04C222.889 50.616 222.708 51.512 222.708 52.728V55.32C222.708 56.3013 222.868 57.0427 223.188 57.544C223.518 58.0453 223.881 58.392 224.276 58.584C224.5 58.7013 224.713 58.7813 224.916 58.824C225.129 58.856 225.31 58.872 225.46 58.872C225.556 58.872 225.652 58.8667 225.748 58.856C225.854 58.8453 225.961 58.8293 226.068 58.808C226.558 58.68 227.028 58.3707 227.476 57.88C227.924 57.3893 228.249 56.6 228.452 55.512ZM231.185 58.68V48.824H229.953V48.52H237.841L238.017 51.544H237.633C237.516 50.6907 237.249 50.024 236.833 49.544C236.428 49.064 235.815 48.824 234.993 48.824H232.977V53.24H233.553C233.649 53.24 233.745 53.24 233.841 53.24C233.948 53.2293 234.06 53.208 234.177 53.176C234.423 53.1013 234.652 52.936 234.865 52.68C235.079 52.4133 235.217 51.96 235.281 51.32H235.601V55.512H235.281C235.281 55.4907 235.276 55.4693 235.265 55.448C235.265 55.416 235.26 55.3893 235.249 55.368C235.132 54.6853 234.972 54.216 234.769 53.96C234.577 53.6933 234.204 53.56 233.649 53.56H232.977V58.68H235.265C235.372 58.68 235.479 58.6747 235.585 58.664C235.703 58.6533 235.82 58.6373 235.937 58.616C236.364 58.5307 236.769 58.2907 237.153 57.896C237.548 57.4907 237.836 56.7707 238.017 55.736H238.401L238.065 59H229.953V58.68H231.185ZM247.851 55.88V49.896C247.851 49.5653 247.755 49.3253 247.563 49.176C247.381 49.0267 247.179 48.9253 246.955 48.872C246.869 48.8507 246.784 48.84 246.699 48.84C246.624 48.8293 246.549 48.824 246.475 48.824V48.52H249.563V48.824C249.008 48.8347 248.645 48.9467 248.475 49.16C248.315 49.3733 248.224 49.608 248.203 49.864C248.192 49.928 248.187 49.992 248.187 50.056C248.187 50.12 248.187 50.184 248.187 50.248C248.187 50.248 248.187 50.2533 248.187 50.264C248.187 50.264 248.187 50.2693 248.187 50.28V59.176H248.075L241.275 50.12V57.24C241.275 57.3147 241.285 57.4107 241.307 57.528C241.328 57.6453 241.365 57.768 241.419 57.896C241.493 58.0987 241.627 58.2853 241.819 58.456C242.021 58.616 242.304 58.6907 242.667 58.68V59H239.563V58.68C239.584 58.68 239.6 58.68 239.611 58.68C239.632 58.68 239.648 58.68 239.659 58.68C239.68 58.6907 239.696 58.696 239.707 58.696C239.728 58.696 239.744 58.696 239.755 58.696C240.064 58.6853 240.336 58.584 240.571 58.392C240.816 58.1893 240.939 57.8053 240.939 57.24V49.672C240.939 49.4587 240.869 49.2933 240.731 49.176C240.592 49.0587 240.437 48.9733 240.267 48.92C240.171 48.888 240.075 48.8667 239.979 48.856C239.883 48.8347 239.803 48.824 239.739 48.824V48.52H242.283L247.851 55.88ZM254.41 58.68V48.824C253.237 48.8027 252.41 49.032 251.93 49.512C251.45 49.9813 251.152 50.7493 251.034 51.816H250.586L250.666 48.52H259.946L260.026 51.816H259.578C259.45 50.6107 259.136 49.8107 258.634 49.416C258.133 49.0213 257.322 48.824 256.202 48.824V58.68H257.434V59H253.178V58.68H254.41ZM264.071 58.68H265.303V59H261.047V58.68H262.279V48.824H261.047V48.52H265.383C265.596 48.52 265.82 48.5253 266.055 48.536C266.29 48.536 266.53 48.5467 266.775 48.568C267.522 48.6213 268.204 48.8027 268.823 49.112C269.452 49.4213 269.767 50.0027 269.767 50.856C269.767 51.5173 269.506 52.088 268.983 52.568C268.471 53.0373 267.639 53.32 266.487 53.416V53.48C267.703 53.672 268.471 54.0027 268.791 54.472C269.111 54.9413 269.335 55.7573 269.463 56.92C269.474 57.0053 269.484 57.0907 269.495 57.176C269.506 57.2613 269.516 57.352 269.527 57.448C269.538 57.5013 269.543 57.56 269.543 57.624C269.554 57.6773 269.559 57.7307 269.559 57.784C269.591 57.9867 269.639 58.1733 269.703 58.344C269.778 58.5147 269.895 58.6 270.055 58.6C270.108 58.6 270.162 58.5947 270.215 58.584C270.268 58.5627 270.322 58.536 270.375 58.504C270.428 58.472 270.482 58.4347 270.535 58.392C270.599 58.3493 270.658 58.3067 270.711 58.264C270.754 58.232 270.791 58.2 270.823 58.168C270.866 58.1253 270.898 58.088 270.919 58.056L271.159 58.312C270.86 58.7173 270.562 58.9573 270.263 59.032C269.975 59.1173 269.708 59.16 269.463 59.16C268.823 59.16 268.37 59.0053 268.103 58.696C267.847 58.3867 267.666 57.7413 267.559 56.76C267.399 55.224 267.17 54.3173 266.871 54.04C266.583 53.7627 266.082 53.624 265.367 53.624H264.071V58.68ZM264.071 53.304H265.191C265.842 53.304 266.428 53.16 266.951 52.872C267.484 52.584 267.751 51.9067 267.751 50.84C267.751 50.0507 267.543 49.5173 267.127 49.24C266.711 48.9627 266.098 48.824 265.287 48.824H264.071V53.304ZM273.185 58.68V48.824H271.953V48.52H279.841L280.017 51.544H279.633C279.516 50.6907 279.249 50.024 278.833 49.544C278.428 49.064 277.815 48.824 276.993 48.824H274.977V53.24H275.553C275.649 53.24 275.745 53.24 275.841 53.24C275.948 53.2293 276.06 53.208 276.177 53.176C276.423 53.1013 276.652 52.936 276.865 52.68C277.079 52.4133 277.217 51.96 277.281 51.32H277.601V55.512H277.281C277.281 55.4907 277.276 55.4693 277.265 55.448C277.265 55.416 277.26 55.3893 277.249 55.368C277.132 54.6853 276.972 54.216 276.769 53.96C276.577 53.6933 276.204 53.56 275.649 53.56H274.977V58.68H277.265C277.372 58.68 277.479 58.6747 277.585 58.664C277.703 58.6533 277.82 58.6373 277.937 58.616C278.364 58.5307 278.769 58.2907 279.153 57.896C279.548 57.4907 279.836 56.7707 280.017 55.736H280.401L280.065 59H271.953V58.68H273.185Z" fill="#872572"/>
</svg>
