<svg width="40" height="40" viewBox="0 0 40 40" fill="none" xmlns="http://www.w3.org/2000/svg">
<path d="M13.1155 15.469L13.9423 14.5315C13.364 14.0438 12.6319 13.7764 11.8755 13.7764C11.119 13.7764 10.3869 14.0438 9.80859 14.5315L10.6355 15.469C10.9823 15.1762 11.4216 15.0156 11.8755 15.0156C12.3294 15.0156 12.7686 15.1762 13.1155 15.469Z" fill="#FFD700"/>
<path d="M9.375 11.875C10.0654 11.875 10.625 11.3154 10.625 10.625C10.625 9.93464 10.0654 9.375 9.375 9.375C8.68464 9.375 8.125 9.93464 8.125 10.625C8.125 11.3154 8.68464 11.875 9.375 11.875Z" fill="#FFD700"/>
<path d="M14.375 11.875C15.0654 11.875 15.625 11.3154 15.625 10.625C15.625 9.93464 15.0654 9.375 14.375 9.375C13.6846 9.375 13.125 9.93464 13.125 10.625C13.125 11.3154 13.6846 11.875 14.375 11.875Z" fill="#FFD700"/>
<path d="M18.6563 21.3937L15.8438 20.4562L15 19.1875V17.9062C15.9482 17.3571 16.7358 16.5689 17.2841 15.6203C17.8325 14.6716 18.1224 13.5957 18.125 12.5H18.4375C19.0177 12.5 19.5741 12.2695 19.9843 11.8593C20.3945 11.4491 20.625 10.8927 20.625 10.3125C20.625 9.73234 20.3945 9.17594 19.9843 8.7657C19.5741 8.35547 19.0177 8.125 18.4375 8.125H18.125V3.75C18.125 3.58424 18.0592 3.42527 17.9419 3.30806C17.8247 3.19085 17.6658 3.125 17.5 3.125H15.625V1.875C15.625 1.70924 15.5592 1.55027 15.4419 1.43306C15.3247 1.31585 15.1658 1.25 15 1.25H8.75C7.9212 1.25 7.12635 1.57924 6.54029 2.16529C5.95424 2.75134 5.625 3.5462 5.625 4.375V8.125H5.3125C4.73234 8.125 4.17594 8.35547 3.76571 8.7657C3.35547 9.17594 3.125 9.73234 3.125 10.3125C3.125 10.8927 3.35547 11.4491 3.76571 11.8593C4.17594 12.2695 4.73234 12.5 5.3125 12.5H5.625C5.62758 13.5957 5.91751 14.6716 6.46586 15.6203C7.01421 16.5689 7.8018 17.3571 8.75 17.9062V19.1875L7.90625 20.4562L5.09375 21.3937C3.97356 21.7668 2.99933 22.4833 2.30936 23.4414C1.61939 24.3995 1.24874 25.5506 1.25 26.7313V38.125C1.25 38.2908 1.31585 38.4497 1.43306 38.5669C1.55027 38.6842 1.70924 38.75 1.875 38.75H21.875C22.0408 38.75 22.1997 38.6842 22.3169 38.5669C22.4342 38.4497 22.5 38.2908 22.5 38.125V26.7313C22.5013 25.5506 22.1306 24.3995 21.4406 23.4414C20.7507 22.4833 19.7764 21.7668 18.6563 21.3937ZM18.125 9.375H18.4375C18.6861 9.375 18.9246 9.47377 19.1004 9.64959C19.2762 9.8254 19.375 10.0639 19.375 10.3125C19.375 10.5611 19.2762 10.7996 19.1004 10.9754C18.9246 11.1512 18.6861 11.25 18.4375 11.25H18.125V9.375ZM5.625 11.25H5.3125C5.06386 11.25 4.82541 11.1512 4.64959 10.9754C4.47377 10.7996 4.375 10.5611 4.375 10.3125C4.375 10.0639 4.47377 9.8254 4.64959 9.64959C4.82541 9.47377 5.06386 9.375 5.3125 9.375H5.625V11.25ZM15.625 5V4.375H16.875V6.3625C16.6746 6.28974 16.4632 6.25169 16.25 6.25H15.2938C15.5142 5.87054 15.6286 5.43882 15.625 5ZM6.875 4.375C6.87649 3.87818 7.07451 3.40212 7.42582 3.05081C7.77713 2.6995 8.25318 2.50148 8.75 2.5H14.375V5C14.375 5.3125 14.375 6.25 12.5 6.25H7.5C7.28679 6.25169 7.07542 6.28974 6.875 6.3625V4.375ZM6.875 12.5V8.125C6.875 7.95924 6.94085 7.80027 7.05806 7.68306C7.17527 7.56585 7.33424 7.5 7.5 7.5H16.25C16.4158 7.5 16.5747 7.56585 16.6919 7.68306C16.8092 7.80027 16.875 7.95924 16.875 8.125V12.5C16.875 13.8261 16.3482 15.0979 15.4105 16.0355C14.4729 16.9732 13.2011 17.5 11.875 17.5C10.5489 17.5 9.27715 16.9732 8.33947 16.0355C7.40179 15.0979 6.875 13.8261 6.875 12.5ZM10 19.1875V18.4625C11.2206 18.8458 12.5294 18.8458 13.75 18.4625V19.1875L11.875 22L10 19.1875ZM10.9938 22.925L9.21875 23.9937L8.78125 21.3937L9.375 20.5L10.9938 22.925ZM14.375 20.5L14.9688 21.3937L14.5313 23.9937L12.7563 22.925L14.375 20.5ZM21.25 37.5H18.75V26.875H17.5V37.5H6.25V26.875H5V37.5H2.5V26.7313C2.49817 25.8123 2.78665 24.9163 3.32427 24.171C3.86188 23.4258 4.62116 22.8694 5.49375 22.5813L7.59375 21.875L8.13125 25.1C8.15505 25.2468 8.23043 25.3803 8.34384 25.4766C8.45725 25.5728 8.60127 25.6254 8.75 25.625C8.86218 25.625 8.97228 25.5947 9.06875 25.5375L11.875 23.8562L14.6813 25.5375C14.7777 25.5947 14.8878 25.625 15 25.625C15.1487 25.6254 15.2928 25.5728 15.4062 25.4766C15.5196 25.3803 15.595 25.2468 15.6188 25.1L16.1563 21.875L18.2563 22.5813C19.1288 22.8694 19.8881 23.4258 20.4257 24.171C20.9634 24.9163 21.2518 25.8123 21.25 26.7313V37.5Z" fill="#FFD700"/>
<path d="M38.75 35V33.75H37.5V27.5C37.4987 27.2819 37.4403 27.0679 37.3307 26.8793C37.221 26.6907 37.0639 26.5341 36.875 26.425V25C36.874 24.6688 36.742 24.3514 36.5078 24.1172C36.2736 23.883 35.9562 23.751 35.625 23.75V20H34.375V23.75C34.0438 23.751 33.7264 23.883 33.4922 24.1172C33.258 24.3514 33.126 24.6688 33.125 25V26.425C32.9361 26.5341 32.779 26.6907 32.6693 26.8793C32.5597 27.0679 32.5013 27.2819 32.5 27.5V33.75H31.25V35H33.125V37.5H31.875V38.75H38.125V37.5H36.875V35H38.75ZM34.375 25H35.625V26.25H34.375V25ZM35.625 37.5H34.375V35H35.625V37.5ZM36.25 33.75H33.75V32.5H36.25V33.75ZM36.25 28.75H35V30H36.25V31.25H33.75V27.5H36.25V28.75Z" fill="#FFD700"/>
<path d="M29.8187 32.0563L28.75 30.9938V30C28.9158 30 29.0747 29.9342 29.1919 29.8169C29.3092 29.6997 29.375 29.5408 29.375 29.375V26.875C29.375 26.7092 29.3092 26.5503 29.1919 26.4331C29.0747 26.3158 28.9158 26.25 28.75 26.25H25C24.8342 26.25 24.6753 26.3158 24.5581 26.4331C24.4408 26.5503 24.375 26.7092 24.375 26.875V29.375C24.375 29.5408 24.4408 29.6997 24.5581 29.8169C24.6753 29.9342 24.8342 30 25 30V30.9938L23.9313 32.0563C23.8161 32.1754 23.7512 32.3343 23.75 32.5V38.125C23.75 38.2908 23.8158 38.4497 23.9331 38.5669C24.0503 38.6842 24.2092 38.75 24.375 38.75H29.375C29.5408 38.75 29.6997 38.6842 29.8169 38.5669C29.9342 38.4497 30 38.2908 30 38.125V32.5C29.9988 32.3343 29.9339 32.1754 29.8187 32.0563ZM25.625 27.5H28.125V28.75H25.625V27.5ZM26.0687 31.6937C26.1839 31.5746 26.2488 31.4157 26.25 31.25V30H27.5V31.25C27.5012 31.4157 27.5661 31.5746 27.6813 31.6937L28.4938 32.5H25.2562L26.0687 31.6937ZM28.75 37.5H25V36.25H28.75V37.5ZM28.75 35H25V33.75H28.75V35Z" fill="#FFD700"/>
<path d="M27.1641 10.9594C27.1637 11.2071 27.2127 11.4523 27.3082 11.6808C27.4037 11.9093 27.5438 12.1164 27.7203 12.2901C28.0764 12.6298 28.5497 12.8194 29.0419 12.8194C29.5341 12.8194 30.0074 12.6298 30.3634 12.2901L31.2516 11.4013L32.1397 12.2901C32.4914 12.6417 32.9683 12.8393 33.4656 12.8393C33.963 12.8393 34.4399 12.6417 34.7916 12.2901C35.1432 11.9384 35.3408 11.4615 35.3408 10.9641C35.3408 10.4668 35.1432 9.98985 34.7916 9.63819L33.9028 8.75007L34.7916 7.86194C34.9659 7.68767 35.104 7.48064 35.198 7.25276C35.2919 7.02489 35.3399 6.78067 35.3391 6.53418C35.3383 6.2877 35.2887 6.0438 35.1932 5.81655C35.0978 5.5893 34.9583 5.38318 34.7828 5.21007C34.4267 4.87043 33.9534 4.68096 33.4613 4.68096C32.9691 4.68096 32.4959 4.87043 32.1397 5.21007L31.2516 6.09882L30.3634 5.21007C30.0065 4.86759 29.5304 4.67709 29.0357 4.67872C28.541 4.68035 28.0663 4.87399 27.7116 5.21882C27.538 5.39235 27.4003 5.59838 27.3064 5.82514C27.2124 6.0519 27.1641 6.29494 27.1641 6.54038C27.1641 6.78583 27.2124 7.02887 27.3064 7.25562C27.4003 7.48238 27.538 7.68841 27.7116 7.86194L28.6003 8.75007L27.7116 9.63819C27.5374 9.81122 27.3993 10.0171 27.3053 10.2439C27.2113 10.4707 27.1633 10.7139 27.1641 10.9594ZM28.5953 10.5219L29.9259 9.19194C30.0431 9.07474 30.1089 8.9158 30.1089 8.75007C30.1089 8.58434 30.0431 8.4254 29.9259 8.30819L28.5953 6.97819C28.537 6.91996 28.491 6.85065 28.4598 6.77435C28.4287 6.69805 28.4132 6.6163 28.4141 6.5339C28.415 6.4515 28.4324 6.37012 28.4653 6.29455C28.4981 6.21897 28.5457 6.15072 28.6053 6.09382C28.7231 5.98105 28.8798 5.9181 29.0428 5.9181C29.2059 5.9181 29.3626 5.98105 29.4803 6.09382L30.8103 7.42444C30.9297 7.53736 31.0878 7.60028 31.2522 7.60028C31.4165 7.60028 31.5747 7.53736 31.6941 7.42444L33.0234 6.09382C33.0821 6.03636 33.1516 5.99104 33.2278 5.96044C33.3041 5.92984 33.3856 5.91457 33.4677 5.9155C33.5498 5.91643 33.631 5.93354 33.7065 5.96585C33.782 5.99816 33.8504 6.04505 33.9078 6.10382C33.9657 6.16094 34.0116 6.22908 34.0427 6.30422C34.0739 6.37936 34.0896 6.45998 34.0891 6.54132C34.0893 6.6226 34.0734 6.70312 34.0422 6.77821C34.0111 6.85331 33.9654 6.92149 33.9078 6.97882L32.5772 8.30882C32.46 8.42602 32.3942 8.58497 32.3942 8.75069C32.3942 8.91642 32.46 9.07536 32.5772 9.19257L33.9078 10.5226C33.9661 10.5808 34.0122 10.6501 34.0433 10.7264C34.0744 10.8027 34.09 10.8845 34.089 10.9669C34.0881 11.0493 34.0707 11.1306 34.0379 11.2062C34.005 11.2818 33.9574 11.35 33.8978 11.4069C33.7801 11.5197 33.6234 11.5827 33.4603 11.5827C33.2973 11.5827 33.1406 11.5197 33.0228 11.4069L31.6928 10.0763C31.5756 9.95915 31.4167 9.89333 31.2509 9.89333C31.0852 9.89333 30.9263 9.95915 30.8091 10.0763L29.4797 11.4063C29.421 11.4638 29.3515 11.5091 29.2753 11.5397C29.1991 11.5703 29.1176 11.5856 29.0354 11.5846C28.9533 11.5837 28.8722 11.5666 28.7966 11.5343C28.7211 11.502 28.6527 11.4551 28.5953 11.3963C28.5374 11.3392 28.4915 11.2711 28.4604 11.1959C28.4293 11.1208 28.4135 11.0402 28.4141 10.9588C28.414 10.8776 28.4299 10.7972 28.461 10.7223C28.4921 10.6473 28.5378 10.5792 28.5953 10.5219Z" fill="#FFD700"/>
<path d="M31.25 16.25C32.7334 16.25 34.1834 15.8101 35.4168 14.986C36.6501 14.1619 37.6114 12.9906 38.1791 11.6201C38.7468 10.2497 38.8953 8.74168 38.6059 7.28683C38.3165 5.83197 37.6022 4.4956 36.5533 3.4467C35.5044 2.39781 34.168 1.6835 32.7132 1.39411C31.2583 1.10472 29.7503 1.25325 28.3799 1.82091C27.0094 2.38856 25.8381 3.34986 25.014 4.58323C24.1899 5.8166 23.75 7.26664 23.75 8.75C23.7522 10.7385 24.543 12.6449 25.9491 14.0509C27.3551 15.457 29.2615 16.2479 31.25 16.25ZM31.25 2.5C32.4861 2.5 33.6945 2.86656 34.7223 3.55332C35.7501 4.24008 36.5512 5.21619 37.0242 6.35823C37.4973 7.50027 37.6211 8.75694 37.3799 9.96932C37.1388 11.1817 36.5435 12.2953 35.6694 13.1694C34.7953 14.0435 33.6817 14.6388 32.4693 14.8799C31.2569 15.1211 30.0003 14.9973 28.8582 14.5243C27.7162 14.0512 26.7401 13.2501 26.0533 12.2223C25.3666 11.1945 25 9.98614 25 8.75C25.0018 7.09296 25.6609 5.5043 26.8326 4.3326C28.0043 3.16089 29.593 2.50182 31.25 2.5Z" fill="#FFD700"/>
</svg>
