<svg width="48" height="48" viewBox="0 0 48 48" fill="none" xmlns="http://www.w3.org/2000/svg">
<path d="M30 17.25C27.3318 17.2372 24.7205 18.0206 22.5 19.5V12C22.5 11.4033 22.2629 10.831 21.841 10.409C21.419 9.98705 20.8467 9.75 20.25 9.75H18.75V8.25H19.5C19.6989 8.25 19.8897 8.17098 20.0303 8.03033C20.171 7.88968 20.25 7.69891 20.25 7.5V4.5C20.25 4.30109 20.171 4.11032 20.0303 3.96967C19.8897 3.82902 19.6989 3.75 19.5 3.75H7.5C7.30109 3.75 7.11032 3.82902 6.96967 3.96967C6.82902 4.11032 6.75 4.30109 6.75 4.5V7.5C6.75 7.69891 6.82902 7.88968 6.96967 8.03033C7.11032 8.17098 7.30109 8.25 7.5 8.25H8.25V9.75H6.75C6.15326 9.75 5.58097 9.98705 5.15901 10.409C4.73705 10.831 4.5 11.4033 4.5 12V31.5C4.5 32.0967 4.73705 32.669 5.15901 33.091C5.58097 33.5129 6.15326 33.75 6.75 33.75H16.845C17.4098 36.2281 18.6627 38.4965 20.4596 40.294C22.2565 42.0916 24.5243 43.3454 27.0022 43.9112C29.4801 44.4771 32.0674 44.3319 34.4664 43.4924C36.8654 42.6529 38.9787 41.1532 40.5632 39.1658C42.1477 37.1785 43.1389 34.7842 43.4229 32.2584C43.7069 29.7327 43.2721 27.1781 42.1686 24.8885C41.065 22.5989 39.3375 20.6673 37.1848 19.316C35.0321 17.9647 32.5417 17.2486 30 17.25ZM8.25 5.25H18.75V6.75H8.25V5.25ZM17.25 8.25V9.75H9.75V8.25H17.25ZM6 12C6 11.8011 6.07902 11.6103 6.21967 11.4697C6.36032 11.329 6.55109 11.25 6.75 11.25H20.25C20.4489 11.25 20.6397 11.329 20.7803 11.4697C20.921 11.6103 21 11.8011 21 12V16.8075C20.179 15.5698 19.0645 14.5546 17.7559 13.8523C16.4473 13.15 14.9852 12.7824 13.5 12.7824C12.0148 12.7824 10.5527 13.15 9.24409 13.8523C7.93546 14.5546 6.82096 15.5698 6 16.8075V12ZM6.75 32.25C6.55109 32.25 6.36032 32.171 6.21967 32.0303C6.07902 31.8897 6 31.6989 6 31.5V26.715C7.10986 28.3851 8.74569 29.6367 10.6479 30.2713C12.5501 30.9058 14.6098 30.8869 16.5 30.2175C16.5 30.3975 16.5 30.57 16.5 30.75C16.4996 31.2514 16.5297 31.7523 16.59 32.25H6.75ZM16.7025 28.5C15.7025 28.9806 14.6094 29.2366 13.5 29.25C12.0574 29.2524 10.6447 28.8387 9.43134 28.0584C8.21794 27.2782 7.2553 26.1646 6.65882 24.8511C6.06233 23.5376 5.85732 22.08 6.06835 20.6529C6.27938 19.2258 6.89749 17.8899 7.8486 16.8052C8.79972 15.7206 10.0435 14.9332 11.4307 14.5376C12.818 14.1419 14.29 14.1548 15.6701 14.5746C17.0503 14.9944 18.2801 15.8033 19.2121 16.9044C20.1442 18.0054 20.7389 19.352 20.925 20.7825C20.4123 21.2453 19.9359 21.7468 19.5 22.2825V20.25H18V21H16.395C16.3207 20.737 16.2123 20.4848 16.0725 20.25L17.25 19.095L17.7825 19.6275L18.84 18.57L16.7175 16.4475L15.66 17.505L16.1925 18.0375L15 19.1775C14.7652 19.0377 14.513 18.9293 14.25 18.855V17.25H15V15.75H12V17.25H12.75V18.855C12.487 18.9293 12.2348 19.0377 12 19.1775L10.86 18.0375L11.3925 17.505L10.335 16.4475L8.2125 18.57L9.27 19.6275L9.8025 19.095L10.9275 20.25C10.7877 20.4848 10.6793 20.737 10.605 21H9V20.25H7.5V23.25H9V22.5H10.605C10.6793 22.763 10.7877 23.0152 10.9275 23.25L9.7875 24.39L9.255 23.8575L8.1975 24.915L10.32 27.0375L11.3775 25.98L10.845 25.5L12 24.3225C12.2348 24.4623 12.487 24.5707 12.75 24.645V26.25H12V27.75H15V26.25H14.25V24.645C14.513 24.5707 14.7652 24.4623 15 24.3225L16.155 25.5L15.6225 26.0325L16.68 27.09L17.175 26.6025C16.9703 27.2223 16.8124 27.8566 16.7025 28.5ZM15 21.75C15 22.0467 14.912 22.3367 14.7472 22.5834C14.5824 22.83 14.3481 23.0223 14.074 23.1358C13.7999 23.2494 13.4983 23.2791 13.2074 23.2212C12.9164 23.1633 12.6491 23.0204 12.4393 22.8107C12.2296 22.6009 12.0867 22.3336 12.0288 22.0426C11.9709 21.7517 12.0006 21.4501 12.1142 21.176C12.2277 20.9019 12.42 20.6676 12.6666 20.5028C12.9133 20.338 13.2033 20.25 13.5 20.25C13.8978 20.25 14.2794 20.408 14.5607 20.6893C14.842 20.9706 15 21.3522 15 21.75ZM17.25 24.405L16.0725 23.25C16.2123 23.0152 16.3207 22.763 16.395 22.5H18V23.25H18.75C18.525 23.5875 18.3225 23.925 18.1275 24.285L17.715 23.8725L17.25 24.405ZM30 42.75C27.6266 42.75 25.3065 42.0462 23.3332 40.7276C21.3598 39.4091 19.8217 37.5349 18.9134 35.3422C18.0052 33.1495 17.7676 30.7367 18.2306 28.4089C18.6936 26.0811 19.8365 23.9429 21.5147 22.2647C23.1929 20.5865 25.3311 19.4436 27.6589 18.9806C29.9867 18.5176 32.3995 18.7552 34.5922 19.6634C36.7849 20.5717 38.6591 22.1098 39.9776 24.0832C41.2962 26.0565 42 28.3766 42 30.75C42 33.9326 40.7357 36.9848 38.4853 39.2353C36.2348 41.4857 33.1826 42.75 30 42.75Z" fill="#FFD700"/>
<path d="M30 23.25C28.5166 23.25 27.0666 23.6899 25.8332 24.514C24.5999 25.3381 23.6386 26.5094 23.0709 27.8799C22.5032 29.2503 22.3547 30.7583 22.6441 32.2132C22.9335 33.668 23.6478 35.0044 24.6967 36.0533C25.7456 37.1022 27.082 37.8165 28.5368 38.1059C29.9917 38.3953 31.4997 38.2468 32.8701 37.6791C34.2406 37.1114 35.4119 36.1501 36.236 34.9168C37.0601 33.6834 37.5 32.2334 37.5 30.75C37.5 28.7609 36.7098 26.8532 35.3033 25.4467C33.8968 24.0402 31.9891 23.25 30 23.25ZM24.4725 33.09C24.0053 31.9894 23.8776 30.7744 24.1057 29.6007C24.3338 28.427 24.9074 27.3483 25.7528 26.5028C26.5983 25.6574 27.677 25.0838 28.8507 24.8557C30.0244 24.6276 31.2394 24.7553 32.34 25.2225L24.4725 33.09ZM25.2675 34.425L33.675 26.0175C34.0711 26.3236 34.4265 26.6789 34.7325 27.075L26.325 35.4825C25.9289 35.1764 25.5736 34.8211 25.2675 34.425ZM36 30.75C36.0004 31.741 35.7554 32.7166 35.2868 33.5898C34.8183 34.4629 34.1407 35.2064 33.3147 35.7539C32.4887 36.3013 31.54 36.6357 30.5532 36.7271C29.5665 36.8184 28.5725 36.664 27.66 36.2775L35.5275 28.41C35.8386 29.151 35.9992 29.9464 36 30.75Z" fill="#FFD700"/>
</svg>
